<?xml version="1.0" encoding="UTF-8" standalone="no"?>
<svg width="861px" height="134px" viewBox="0 0 861 134" version="1.1" xmlns="http://www.w3.org/2000/svg" xmlns:xlink="http://www.w3.org/1999/xlink" xmlns:sketch="http://www.bohemiancoding.com/sketch/ns">
    <!-- Generator: Sketch 3.5.1 (25234) - http://www.bohemiancoding.com/sketch -->
    <title>Shape</title>
    <desc>Created with Sketch.</desc>
    <defs></defs>
    <g id="Welcome" stroke="none" stroke-width="1" fill="none" fill-rule="evenodd" sketch:type="MSPage">
        <g id="Desktop-HD" sketch:type="MSArtboardGroup" transform="translate(-67.000000, -478.000000)" fill="#C12626">
            <path d="M67.4271196,575.43117 C81.3716702,600.467298 96.3689259,613.120313 111.721254,611.155921 C128.692011,608.984445 145.52458,589.037478 161.835298,550.057894 C177.190141,513.362675 217.519227,495.40502 267.952373,496.759215 C311.966454,497.94105 354.541079,514.369937 366.095289,534.583119 C376.954838,553.581044 430.81347,578.648278 493.663158,596.386577 C522.633059,604.562859 549.835075,610.002846 569.766269,611.476762 C591.732749,613.101187 604.054401,609.920326 604.054406,601.415252 C604.054416,584.090218 630.632192,544.487357 662.261624,515.927294 C700.487297,481.411099 737.085797,469.356093 761.906594,489.456692 C776.087013,500.940404 791.117856,508.150649 809.827632,513.471451 C817.030316,515.519794 822.490174,516.782841 835.832672,519.645807 C859.578583,524.741086 870.351749,527.78713 883.138455,534.056139 C899.89516,542.271542 914.062754,554.446894 926.836158,572.707301 L927.655577,572.134106 C914.785607,553.735652 900.487754,541.448357 883.57867,533.158247 C870.69556,526.841973 859.866181,523.780035 836.042472,518.668063 C822.721702,515.809759 817.275532,514.549879 810.101172,512.50959 C791.512794,507.223312 776.60196,500.070636 762.535936,488.679563 C737.207329,468.167725 700.140339,480.377044 661.591447,515.185093 C629.768861,543.919567 603.054416,583.726073 603.054406,601.415251 C603.054401,609.007498 591.22613,612.060992 569.840018,610.479485 C549.984867,609.011193 522.845284,603.583691 493.93478,595.424173 C431.359798,577.763405 377.637016,552.7594 366.963462,534.086857 C355.195832,513.500315 312.306037,496.949808 267.979214,495.759575 C217.176587,494.395459 176.455534,512.527649 160.912804,549.671884 C144.72769,588.351296 128.10325,608.051626 111.594334,610.164008 C96.7650732,612.061472 82.0673021,599.661128 68.3007491,574.944578 L67.4271196,575.43117 L67.4271196,575.43117 Z" id="Shape" sketch:type="MSShapeGroup"></path>
        </g>
    </g>
</svg>